<?xml version="1.0" standalone="no"?>
<!DOCTYPE svg PUBLIC "-//W3C//DTD SVG 20010904//EN"
 "http://www.w3.org/TR/2001/REC-SVG-20010904/DTD/svg10.dtd">
<svg version="1.0" xmlns="http://www.w3.org/2000/svg"
 width="512.000000pt" height="512.000000pt" viewBox="0 0 512.000000 512.000000"
 preserveAspectRatio="xMidYMid meet">

<g transform="translate(0.000000,512.000000) scale(0.100000,-0.100000)"
fill="#000000" stroke="none">
<path d="M2372 5110 c-836 -65 -1579 -527 -2012 -1250 -328 -548 -435 -1226
-294 -1860 194 -872 836 -1580 1689 -1865 126 -42 340 -95 384 -95 l21 0 0
890 0 890 -325 0 -325 0 0 370 0 370 325 0 325 0 0 354 c0 271 4 374 15 442
73 423 347 693 763 754 109 16 431 8 620 -15 l142 -18 0 -317 0 -317 -212 -6
c-240 -6 -290 -16 -375 -74 -29 -19 -66 -56 -83 -81 -57 -86 -62 -119 -67
-434 l-5 -288 356 0 c313 0 356 -2 356 -15 0 -17 -96 -652 -106 -698 l-6 -27
-299 0 -299 0 0 -890 0 -890 21 0 c44 0 258 53 384 95 519 173 949 490 1273
938 420 581 573 1334 416 2047 -191 865 -843 1585 -1688 1865 -312 103 -677
149 -994 125z"/>
</g>
</svg>
