<?xml version="1.0" standalone="no"?>
<!DOCTYPE svg PUBLIC "-//W3C//DTD SVG 20010904//EN"
 "http://www.w3.org/TR/2001/REC-SVG-20010904/DTD/svg10.dtd">
<svg version="1.0" xmlns="http://www.w3.org/2000/svg"
 width="512.000000pt" height="512.000000pt" viewBox="0 0 512.000000 512.000000"
 preserveAspectRatio="xMidYMid meet">

<g transform="translate(0.000000,512.000000) scale(0.100000,-0.100000)"
fill="#000000" stroke="none">
<path d="M2360 4800 c-197 -19 -385 -62 -570 -130 -315 -114 -563 -273 -811
-520 -153 -151 -266 -298 -364 -470 l-65 -115 377 -377 378 -378 6 187 c7 214
15 252 85 393 40 81 61 109 143 190 106 106 193 158 331 202 l75 23 615 0 615
0 75 -23 c139 -44 225 -96 330 -202 106 -105 158 -191 202 -330 l23 -75 0
-615 0 -615 -23 -75 c-44 -139 -96 -225 -202 -330 -73 -74 -113 -105 -175
-137 -144 -74 -196 -86 -408 -92 l-187 -6 378 -378 377 -377 115 65 c172 98
319 211 470 364 299 300 490 635 590 1035 48 191 64 330 64 551 0 228 -15 350
-70 565 -221 862 -951 1518 -1844 1654 -125 20 -411 28 -530 16z"/>
<path d="M1966 3514 c-174 -42 -319 -188 -361 -365 -11 -49 -15 -130 -15 -344
l0 -280 468 -468 467 -467 280 0 c214 0 295 4 344 15 179 43 323 187 366 366
22 95 22 1083 0 1178 -43 179 -187 323 -366 366 -91 21 -1094 21 -1183 -1z
m1343 -209 c44 -50 43 -95 -3 -141 -28 -28 -42 -34 -75 -34 -56 0 -100 39
-108 97 -5 39 -2 46 30 78 30 30 42 35 80 35 39 0 49 -5 76 -35z m-595 -125
c229 -58 408 -237 466 -466 73 -284 -69 -594 -330 -722 -109 -54 -184 -72
-290 -72 -201 0 -378 86 -505 244 -89 112 -135 245 -135 396 -1 412 397 722
794 620z"/>
<path d="M2498 2940 c-120 -21 -227 -100 -281 -209 -30 -61 -32 -72 -32 -171
0 -93 3 -111 27 -162 34 -74 112 -152 186 -186 50 -24 69 -27 162 -27 93 0
112 3 162 27 284 133 296 539 20 686 -46 25 -166 56 -192 51 -3 -1 -26 -5 -52
-9z"/>
</g>
</svg>
