<?xml version="1.0" standalone="no"?>
<!DOCTYPE svg PUBLIC "-//W3C//DTD SVG 20010904//EN"
 "http://www.w3.org/TR/2001/REC-SVG-20010904/DTD/svg10.dtd">
<svg version="1.0" xmlns="http://www.w3.org/2000/svg"
 width="512.000000pt" height="512.000000pt" viewBox="0 0 512.000000 512.000000"
 preserveAspectRatio="xMidYMid meet">

<g transform="translate(0.000000,512.000000) scale(0.100000,-0.100000)"
fill="#000000" stroke="none">
<path d="M2350 5110 c-434 -39 -847 -184 -1200 -418 -614 -408 -1008 -1030
-1122 -1767 -30 -199 -30 -531 0 -730 85 -548 316 -1019 692 -1409 398 -412
897 -669 1475 -758 199 -30 531 -30 730 0 578 89 1077 346 1475 758 376 390
607 861 692 1409 30 199 30 531 0 730 -85 547 -316 1020 -692 1409 -395 410
-909 673 -1474 757 -151 22 -438 32 -576 19z m510 -1134 c409 -73 709 -289
853 -613 135 -303 104 -790 -71 -1134 -177 -347 -464 -539 -809 -539 -150 0
-229 27 -388 133 -55 37 -100 65 -102 64 -1 -2 -14 -59 -28 -127 -96 -453
-206 -702 -386 -875 l-73 -70 -8 35 c-4 19 -11 112 -14 205 -11 274 23 510
132 930 30 115 71 277 91 358 l36 149 -29 81 c-26 74 -29 94 -29 212 0 109 4
141 23 199 36 107 69 165 131 227 85 84 176 107 290 73 119 -35 180 -136 167
-277 -8 -88 -17 -124 -77 -322 -71 -236 -89 -318 -89 -416 0 -103 24 -158 86
-201 47 -33 138 -58 210 -58 331 0 593 443 571 965 -10 239 -72 400 -201 522
-250 238 -617 275 -964 98 -290 -149 -477 -419 -499 -725 -9 -135 9 -214 80
-350 56 -106 61 -120 62 -180 0 -71 -36 -180 -61 -180 -7 0 -42 11 -78 24
-178 64 -281 183 -331 380 -64 251 -34 530 81 762 176 355 551 612 969 663
106 13 348 6 455 -13z"/>
</g>
</svg>
